<?xml version="1.0" encoding="UTF-8"?>
<svg width="64" height="64" viewBox="0 0 64 64" fill="none" xmlns="http://www.w3.org/2000/svg">
  <!-- Routy Landmark Pin - Vivid Green -->
  <!-- Pin -->
  <path d="M32 4C21.507 4 13 12.507 13 23c0 12.459 14.57 29.207 17.94 33.01a2.5 2.5 0 0 0 3.12 0C36.43 52.207 51 35.459 51 23 51 12.507 42.493 4 32 4Z" fill="#21D870"/>
  <!-- Inner circle -->
  <circle cx="32" cy="23" r="14" stroke="#FFFFFF" stroke-width="2.5" fill="none"/>
  <!-- Roof -->
  <path d="M22 22h20l-10-6-10 6Z" fill="#FFFFFF"/>
  <!-- Columns -->
  <rect x="22.5" y="24" width="5" height="10" rx="1" fill="#FFFFFF"/>
  <rect x="29.5" y="24" width="5" height="10" rx="1" fill="#FFFFFF"/>
  <rect x="36.5" y="24" width="5" height="10" rx="1" fill="#FFFFFF"/>
  <!-- Door (cut-in look using pin color) -->
  <path d="M31 26a3 3 0 0 1 6 0v8h-6v-8Z" fill="#21D870"/>
  <!-- Base lines -->
  <rect x="21" y="35" width="22" height="3" rx="1.5" fill="#FFFFFF"/>
  <rect x="19" y="39" width="26" height="2.5" rx="1.25" fill="#FFFFFF"/>
</svg>
