<?xml version="1.0" encoding="UTF-8"?>
<svg width="64" height="64" viewBox="0 0 64 64" fill="none" xmlns="http://www.w3.org/2000/svg">
  <!-- Routy Cafe Pin - Light Brown / Milk Coffee Tone -->
  <!-- Pin -->
  <path d="M32 4C21.507 4 13 12.507 13 23c0 12.459 14.57 29.207 17.94 33.01a2.5 2.5 0 0 0 3.12 0C36.43 52.207 51 35.459 51 23 51 12.507 42.493 4 32 4Z" fill="#D1A573"/>
  <!-- Inner circle -->
  <circle cx="32" cy="23" r="14" stroke="#FFFFFF" stroke-width="2.5" fill="none"/>
  <!-- Coffee cup -->
  <rect x="25" y="24" width="14" height="8" rx="2" fill="#FFFFFF"/>
  <path d="M39 25h2a2 2 0 0 1 2 2v2a2 2 0 0 1-2 2h-2v-6Z" fill="#FFFFFF"/>
  <!-- Handle highlight -->
  <path d="M40.5 26.5h1a0.5 0.5 0 0 1 0.5 0.5v1a0.5 0.5 0 0 1-0.5 0.5h-1v-2Z" fill="#D1A573"/>
  <!-- Steam lines -->
  <path d="M29 19c0-1 1-2 1-3s-1-2-1-3" stroke="#FFFFFF" stroke-width="1.5" stroke-linecap="round"/>
  <path d="M33 19c0-1 1-2 1-3s-1-2-1-3" stroke="#FFFFFF" stroke-width="1.5" stroke-linecap="round"/>
  <path d="M37 19c0-1 1-2 1-3s-1-2-1-3" stroke="#FFFFFF" stroke-width="1.5" stroke-linecap="round"/>
</svg>
