<svg width="16" height="16" viewBox="0 0 16 16" fill="none" xmlns="http://www.w3.org/2000/svg">
<g clip-path="url(#clip0_21_159)">
<path d="M15.04 8.16699C15.04 7.64699 14.9933 7.14699 14.9067 6.66699H8V9.50699H11.9467C11.7733 10.4203 11.2533 11.1937 10.4733 11.7137V13.5603H12.8533C14.24 12.2803 15.04 10.4003 15.04 8.16699Z" fill="#4285F4"/>
<path d="M8.00004 15.3337C9.98004 15.3337 11.64 14.6804 12.8534 13.5604L10.4734 11.7137C9.82004 12.1537 8.9867 12.4204 8.00004 12.4204C6.09337 12.4204 4.47337 11.1337 3.89337 9.40039H1.45337V11.2937C2.66004 13.6871 5.13337 15.3337 8.00004 15.3337Z" fill="#34A853"/>
<path d="M3.89329 9.39289C3.74663 8.95289 3.65996 8.48622 3.65996 7.99956C3.65996 7.51289 3.74663 7.04622 3.89329 6.60622V4.71289H1.45329C0.953293 5.69956 0.666626 6.81289 0.666626 7.99956C0.666626 9.18622 0.953293 10.2996 1.45329 11.2862L3.35329 9.80622L3.89329 9.39289Z" fill="#FBBC05"/>
<path d="M8.00004 3.58699C9.08004 3.58699 10.04 3.96033 10.8067 4.68033L12.9067 2.58033C11.6334 1.39366 9.98004 0.666992 8.00004 0.666992C5.13337 0.666992 2.66004 2.31366 1.45337 4.71366L3.89337 6.60699C4.47337 4.87366 6.09337 3.58699 8.00004 3.58699Z" fill="#EA4335"/>
</g>
<defs>
<clipPath id="clip0_21_159">
<rect width="16" height="16" fill="white"/>
</clipPath>
</defs>
</svg>
