<svg width="12" height="12" viewBox="0 0 12 12" fill="none" xmlns="http://www.w3.org/2000/svg">
<g clip-path="url(#clip0_518_2318)">
<path d="M9.99357 4.99666C9.99357 7.49154 7.22587 10.0898 6.29648 10.8923C6.2099 10.9574 6.1045 10.9926 5.99618 10.9926C5.88785 10.9926 5.78245 10.9574 5.69587 10.8923C4.76648 10.0898 1.99878 7.49154 1.99878 4.99666C1.99878 3.93649 2.41993 2.91973 3.16959 2.17008C3.91925 1.42042 4.936 0.999268 5.99618 0.999268C7.05635 0.999268 8.0731 1.42042 8.82276 2.17008C9.57242 2.91973 9.99357 3.93649 9.99357 4.99666Z" stroke="#4A5565" stroke-width="0.999349" stroke-linecap="round" stroke-linejoin="round"/>
<path d="M5.99609 6.49585C6.82398 6.49585 7.49512 5.82471 7.49512 4.99683C7.49512 4.16894 6.82398 3.4978 5.99609 3.4978C5.16821 3.4978 4.49707 4.16894 4.49707 4.99683C4.49707 5.82471 5.16821 6.49585 5.99609 6.49585Z" stroke="#4A5565" stroke-width="0.999349" stroke-linecap="round" stroke-linejoin="round"/>
</g>
<defs>
<clipPath id="clip0_518_2318">
<rect width="11.9922" height="11.9922" fill="white"/>
</clipPath>
</defs>
</svg>
